<mxfile host="Electron" agent="Mozilla/5.0 (Windows NT 10.0; Win64; x64) AppleWebKit/537.36 (KHTML, like Gecko) draw.io/27.0.2 Chrome/134.0.6998.205 Electron/35.3.0 Safari/537.36" version="27.0.2">
  <diagram name="Page-1" id="USiJ-O0mwd0GR3w7NHbk">
    <mxGraphModel dx="2339" dy="2006" grid="1" gridSize="10" guides="1" tooltips="1" connect="1" arrows="1" fold="1" page="1" pageScale="1" pageWidth="850" pageHeight="1100" math="0" shadow="0">
      <root>
        <mxCell id="0" />
        <mxCell id="1" parent="0" />
        <mxCell id="PvZFkcMZm64Rr3_niC1q-2" value="" style="rounded=0;whiteSpace=wrap;html=1;container=0;" parent="1" vertex="1">
          <mxGeometry x="-210" y="-980" width="1390" height="1170" as="geometry" />
        </mxCell>
        <mxCell id="oT0bbJkZGZDbku872UPp-445" value="" style="edgeStyle=entityRelationEdgeStyle;fontSize=12;html=1;endArrow=ERoneToMany;rounded=0;exitX=1;exitY=0.5;exitDx=0;exitDy=0;entryX=0;entryY=0.5;entryDx=0;entryDy=0;" parent="1" source="oT0bbJkZGZDbku872UPp-5" target="oT0bbJkZGZDbku872UPp-6" edge="1">
          <mxGeometry width="100" height="100" relative="1" as="geometry">
            <mxPoint x="330" y="-470" as="sourcePoint" />
            <mxPoint x="430" y="-570" as="targetPoint" />
          </mxGeometry>
        </mxCell>
        <mxCell id="oT0bbJkZGZDbku872UPp-1" value="&lt;font style=&quot;font-size: 18px;&quot;&gt;User&lt;/font&gt;" style="rounded=0;whiteSpace=wrap;html=1;fillColor=#647687;fontColor=#ffffff;strokeColor=#314354;" parent="1" vertex="1">
          <mxGeometry x="160" y="-750" width="100" height="40" as="geometry" />
        </mxCell>
        <mxCell id="oT0bbJkZGZDbku872UPp-2" value="&lt;font style=&quot;font-size: 18px; color: rgb(0, 0, 0);&quot;&gt;Employer&lt;/font&gt;" style="rounded=0;whiteSpace=wrap;html=1;fillColor=#f8cecc;strokeColor=#b85450;gradientColor=#ea6b66;" parent="1" vertex="1">
          <mxGeometry x="620" y="-750" width="100" height="40" as="geometry" />
        </mxCell>
        <mxCell id="oT0bbJkZGZDbku872UPp-4" value="&lt;font style=&quot;font-size: 18px;&quot;&gt;Job&lt;/font&gt;" style="rounded=0;whiteSpace=wrap;html=1;fillColor=#76608a;fontColor=#ffffff;strokeColor=#432D57;" parent="1" vertex="1">
          <mxGeometry x="620" y="-570" width="100" height="40" as="geometry" />
        </mxCell>
        <mxCell id="oT0bbJkZGZDbku872UPp-5" value="&lt;font style=&quot;font-size: 18px;&quot;&gt;Resume&lt;/font&gt;" style="rounded=0;whiteSpace=wrap;html=1;fillColor=#e1d5e7;strokeColor=#9673a6;fontColor=#1A1A1A;fontStyle=1;spacing=2;" parent="1" vertex="1">
          <mxGeometry x="160" y="-410" width="140" height="50" as="geometry" />
        </mxCell>
        <mxCell id="oT0bbJkZGZDbku872UPp-6" value="&lt;font style=&quot;font-size: 18px;&quot;&gt;Application&lt;/font&gt;" style="rounded=0;whiteSpace=wrap;html=1;fillColor=#e51400;fontColor=#ffffff;strokeColor=#B20000;fillStyle=auto;" parent="1" vertex="1">
          <mxGeometry x="620" y="-410" width="140" height="50" as="geometry" />
        </mxCell>
        <mxCell id="oT0bbJkZGZDbku872UPp-334" value="&lt;font style=&quot;font-size: 17px;&quot;&gt;UserType&lt;/font&gt;" style="ellipse;whiteSpace=wrap;html=1;fillColor=#6d8764;fontColor=#ffffff;strokeColor=#3A5431;" parent="1" vertex="1">
          <mxGeometry x="290" y="-880" width="130" height="70" as="geometry" />
        </mxCell>
        <mxCell id="oT0bbJkZGZDbku872UPp-350" value="" style="endArrow=none;html=1;rounded=0;entryX=0;entryY=1;entryDx=0;entryDy=0;exitX=0.75;exitY=0;exitDx=0;exitDy=0;" parent="1" source="oT0bbJkZGZDbku872UPp-1" target="oT0bbJkZGZDbku872UPp-334" edge="1">
          <mxGeometry width="50" height="50" relative="1" as="geometry">
            <mxPoint x="250" y="-760" as="sourcePoint" />
            <mxPoint x="300" y="-810" as="targetPoint" />
            <Array as="points" />
          </mxGeometry>
        </mxCell>
        <mxCell id="oT0bbJkZGZDbku872UPp-351" value="" style="endArrow=none;html=1;rounded=0;entryX=0.5;entryY=1;entryDx=0;entryDy=0;exitX=0.608;exitY=-0.01;exitDx=0;exitDy=0;exitPerimeter=0;" parent="1" source="oT0bbJkZGZDbku872UPp-1" target="oT0bbJkZGZDbku872UPp-335" edge="1">
          <mxGeometry width="50" height="50" relative="1" as="geometry">
            <mxPoint x="220" y="-753" as="sourcePoint" />
            <mxPoint x="271" y="-830" as="targetPoint" />
            <Array as="points" />
          </mxGeometry>
        </mxCell>
        <mxCell id="oT0bbJkZGZDbku872UPp-352" value="" style="endArrow=none;html=1;rounded=0;entryX=0.629;entryY=1.07;entryDx=0;entryDy=0;exitX=0.5;exitY=0;exitDx=0;exitDy=0;entryPerimeter=0;" parent="1" source="oT0bbJkZGZDbku872UPp-1" target="oT0bbJkZGZDbku872UPp-333" edge="1">
          <mxGeometry width="50" height="50" relative="1" as="geometry">
            <mxPoint x="184" y="-764" as="sourcePoint" />
            <mxPoint x="236" y="-830" as="targetPoint" />
            <Array as="points" />
          </mxGeometry>
        </mxCell>
        <mxCell id="oT0bbJkZGZDbku872UPp-353" value="" style="endArrow=none;html=1;rounded=0;entryX=0.5;entryY=1;entryDx=0;entryDy=0;exitX=0.36;exitY=-0.01;exitDx=0;exitDy=0;exitPerimeter=0;" parent="1" source="oT0bbJkZGZDbku872UPp-1" target="oT0bbJkZGZDbku872UPp-332" edge="1">
          <mxGeometry width="50" height="50" relative="1" as="geometry">
            <mxPoint x="140" y="-750" as="sourcePoint" />
            <mxPoint x="192" y="-816" as="targetPoint" />
            <Array as="points" />
          </mxGeometry>
        </mxCell>
        <mxCell id="oT0bbJkZGZDbku872UPp-354" value="" style="endArrow=none;html=1;rounded=0;entryX=0.691;entryY=0.97;entryDx=0;entryDy=0;entryPerimeter=0;" parent="1" target="oT0bbJkZGZDbku872UPp-336" edge="1">
          <mxGeometry width="50" height="50" relative="1" as="geometry">
            <mxPoint x="80" y="-550" as="sourcePoint" />
            <mxPoint x="30" y="-590" as="targetPoint" />
            <Array as="points" />
          </mxGeometry>
        </mxCell>
        <mxCell id="oT0bbJkZGZDbku872UPp-355" value="" style="endArrow=none;html=1;rounded=0;entryX=0.971;entryY=0.68;entryDx=0;entryDy=0;entryPerimeter=0;" parent="1" target="oT0bbJkZGZDbku872UPp-337" edge="1">
          <mxGeometry width="50" height="50" relative="1" as="geometry">
            <mxPoint x="80" y="-550" as="sourcePoint" />
            <mxPoint x="-10" y="-561" as="targetPoint" />
            <Array as="points" />
          </mxGeometry>
        </mxCell>
        <mxCell id="oT0bbJkZGZDbku872UPp-356" value="" style="endArrow=none;html=1;rounded=0;entryX=1;entryY=0.5;entryDx=0;entryDy=0;" parent="1" target="oT0bbJkZGZDbku872UPp-338" edge="1">
          <mxGeometry width="50" height="50" relative="1" as="geometry">
            <mxPoint x="80" y="-550" as="sourcePoint" />
            <mxPoint x="20" y="-530" as="targetPoint" />
            <Array as="points" />
          </mxGeometry>
        </mxCell>
        <mxCell id="oT0bbJkZGZDbku872UPp-357" value="" style="endArrow=none;html=1;rounded=0;entryX=0.5;entryY=0;entryDx=0;entryDy=0;" parent="1" target="oT0bbJkZGZDbku872UPp-339" edge="1">
          <mxGeometry width="50" height="50" relative="1" as="geometry">
            <mxPoint x="80" y="-550" as="sourcePoint" />
            <mxPoint x="40" y="-521" as="targetPoint" />
            <Array as="points" />
          </mxGeometry>
        </mxCell>
        <mxCell id="oT0bbJkZGZDbku872UPp-358" value="" style="endArrow=none;html=1;rounded=0;exitX=0;exitY=0.5;exitDx=0;exitDy=0;" parent="1" source="oT0bbJkZGZDbku872UPp-3" edge="1">
          <mxGeometry width="50" height="50" relative="1" as="geometry">
            <mxPoint x="152" y="-499" as="sourcePoint" />
            <mxPoint x="80" y="-550" as="targetPoint" />
            <Array as="points" />
          </mxGeometry>
        </mxCell>
        <mxCell id="oT0bbJkZGZDbku872UPp-359" value="" style="endArrow=none;html=1;rounded=0;exitX=0;exitY=1;exitDx=0;exitDy=0;" parent="1" source="oT0bbJkZGZDbku872UPp-340" target="oT0bbJkZGZDbku872UPp-5" edge="1">
          <mxGeometry width="50" height="50" relative="1" as="geometry">
            <mxPoint x="132.5" y="-290" as="sourcePoint" />
            <mxPoint x="190" y="-350" as="targetPoint" />
            <Array as="points" />
          </mxGeometry>
        </mxCell>
        <mxCell id="oT0bbJkZGZDbku872UPp-360" value="" style="endArrow=none;html=1;rounded=0;entryX=0.5;entryY=1;entryDx=0;entryDy=0;exitX=0.5;exitY=1;exitDx=0;exitDy=0;" parent="1" source="oT0bbJkZGZDbku872UPp-341" target="oT0bbJkZGZDbku872UPp-5" edge="1">
          <mxGeometry width="50" height="50" relative="1" as="geometry">
            <mxPoint x="150" y="-268" as="sourcePoint" />
            <mxPoint x="223" y="-350" as="targetPoint" />
            <Array as="points" />
          </mxGeometry>
        </mxCell>
        <mxCell id="oT0bbJkZGZDbku872UPp-361" value="" style="endArrow=none;html=1;rounded=0;exitX=0.5;exitY=1;exitDx=0;exitDy=0;entryX=0.6;entryY=1;entryDx=0;entryDy=0;entryPerimeter=0;" parent="1" source="oT0bbJkZGZDbku872UPp-342" target="oT0bbJkZGZDbku872UPp-5" edge="1">
          <mxGeometry width="50" height="50" relative="1" as="geometry">
            <mxPoint x="140" y="-264" as="sourcePoint" />
            <mxPoint x="220" y="-360" as="targetPoint" />
            <Array as="points" />
          </mxGeometry>
        </mxCell>
        <mxCell id="oT0bbJkZGZDbku872UPp-362" value="" style="endArrow=none;html=1;rounded=0;entryX=0.75;entryY=1;entryDx=0;entryDy=0;exitX=1;exitY=1;exitDx=0;exitDy=0;" parent="1" source="oT0bbJkZGZDbku872UPp-343" target="oT0bbJkZGZDbku872UPp-5" edge="1">
          <mxGeometry width="50" height="50" relative="1" as="geometry">
            <mxPoint x="150" y="-254" as="sourcePoint" />
            <mxPoint x="223" y="-336" as="targetPoint" />
            <Array as="points" />
          </mxGeometry>
        </mxCell>
        <mxCell id="oT0bbJkZGZDbku872UPp-379" value="&lt;font style=&quot;font-size: 18px;&quot;&gt;&lt;u&gt;&lt;b&gt;EmployeeID&lt;/b&gt;&lt;/u&gt;&lt;/font&gt;" style="ellipse;whiteSpace=wrap;html=1;fillColor=#e6d0de;gradientColor=#d5739d;strokeColor=#996185;fontColor=#000000;" parent="1" vertex="1">
          <mxGeometry x="460" y="-850" width="135" height="80" as="geometry" />
        </mxCell>
        <mxCell id="oT0bbJkZGZDbku872UPp-383" value="" style="endArrow=none;html=1;rounded=0;entryX=0;entryY=0.5;entryDx=0;entryDy=0;exitX=0.75;exitY=0;exitDx=0;exitDy=0;" parent="1" target="oT0bbJkZGZDbku872UPp-381" edge="1">
          <mxGeometry width="50" height="50" relative="1" as="geometry">
            <mxPoint x="690" y="-750" as="sourcePoint" />
            <mxPoint x="755" y="-816" as="targetPoint" />
            <Array as="points" />
          </mxGeometry>
        </mxCell>
        <mxCell id="oT0bbJkZGZDbku872UPp-385" value="" style="endArrow=none;html=1;rounded=0;entryX=0.35;entryY=0.982;entryDx=0;entryDy=0;entryPerimeter=0;" parent="1" target="oT0bbJkZGZDbku872UPp-382" edge="1">
          <mxGeometry width="50" height="50" relative="1" as="geometry">
            <mxPoint x="680" y="-750" as="sourcePoint" />
            <mxPoint x="730" y="-840" as="targetPoint" />
            <Array as="points" />
          </mxGeometry>
        </mxCell>
        <mxCell id="oT0bbJkZGZDbku872UPp-386" value="" style="endArrow=none;html=1;rounded=0;exitX=0.5;exitY=0;exitDx=0;exitDy=0;entryX=0.5;entryY=1;entryDx=0;entryDy=0;" parent="1" source="oT0bbJkZGZDbku872UPp-2" target="oT0bbJkZGZDbku872UPp-380" edge="1">
          <mxGeometry width="50" height="50" relative="1" as="geometry">
            <mxPoint x="665" y="-753" as="sourcePoint" />
            <mxPoint x="628" y="-820" as="targetPoint" />
            <Array as="points" />
          </mxGeometry>
        </mxCell>
        <mxCell id="oT0bbJkZGZDbku872UPp-387" value="" style="endArrow=none;html=1;rounded=0;entryX=0.5;entryY=1;entryDx=0;entryDy=0;exitX=0.36;exitY=-0.01;exitDx=0;exitDy=0;exitPerimeter=0;" parent="1" edge="1">
          <mxGeometry width="50" height="50" relative="1" as="geometry">
            <mxPoint x="661" y="-750" as="sourcePoint" />
            <mxPoint x="570" y="-810" as="targetPoint" />
            <Array as="points" />
          </mxGeometry>
        </mxCell>
        <mxCell id="oT0bbJkZGZDbku872UPp-393" value="" style="endArrow=none;html=1;rounded=0;exitX=0.257;exitY=0.12;exitDx=0;exitDy=0;exitPerimeter=0;" parent="1" source="oT0bbJkZGZDbku872UPp-388" edge="1">
          <mxGeometry width="50" height="50" relative="1" as="geometry">
            <mxPoint x="840" y="-540" as="sourcePoint" />
            <mxPoint x="810" y="-550" as="targetPoint" />
            <Array as="points" />
          </mxGeometry>
        </mxCell>
        <mxCell id="oT0bbJkZGZDbku872UPp-394" value="" style="endArrow=none;html=1;rounded=0;entryX=0;entryY=0.5;entryDx=0;entryDy=0;" parent="1" target="oT0bbJkZGZDbku872UPp-389" edge="1">
          <mxGeometry width="50" height="50" relative="1" as="geometry">
            <mxPoint x="810" y="-550" as="sourcePoint" />
            <mxPoint x="830" y="-494" as="targetPoint" />
            <Array as="points" />
          </mxGeometry>
        </mxCell>
        <mxCell id="oT0bbJkZGZDbku872UPp-395" value="" style="endArrow=none;html=1;rounded=0;entryX=0;entryY=0.5;entryDx=0;entryDy=0;" parent="1" target="oT0bbJkZGZDbku872UPp-390" edge="1">
          <mxGeometry width="50" height="50" relative="1" as="geometry">
            <mxPoint x="810" y="-550" as="sourcePoint" />
            <mxPoint x="930" y="-500" as="targetPoint" />
            <Array as="points" />
          </mxGeometry>
        </mxCell>
        <mxCell id="oT0bbJkZGZDbku872UPp-396" value="" style="endArrow=none;html=1;rounded=0;entryX=0.326;entryY=1.01;entryDx=0;entryDy=0;entryPerimeter=0;" parent="1" target="oT0bbJkZGZDbku872UPp-392" edge="1">
          <mxGeometry width="50" height="50" relative="1" as="geometry">
            <mxPoint x="810" y="-550" as="sourcePoint" />
            <mxPoint x="940" y="-490" as="targetPoint" />
            <Array as="points" />
          </mxGeometry>
        </mxCell>
        <mxCell id="oT0bbJkZGZDbku872UPp-397" value="" style="endArrow=none;html=1;rounded=0;exitX=1;exitY=0.5;exitDx=0;exitDy=0;" parent="1" source="oT0bbJkZGZDbku872UPp-4" edge="1">
          <mxGeometry width="50" height="50" relative="1" as="geometry">
            <mxPoint x="840" y="-510" as="sourcePoint" />
            <mxPoint x="810" y="-550" as="targetPoint" />
            <Array as="points" />
          </mxGeometry>
        </mxCell>
        <mxCell id="oT0bbJkZGZDbku872UPp-402" value="" style="endArrow=none;html=1;rounded=0;entryX=0.75;entryY=1;entryDx=0;entryDy=0;exitX=0.257;exitY=0.055;exitDx=0;exitDy=0;exitPerimeter=0;" parent="1" source="oT0bbJkZGZDbku872UPp-401" target="oT0bbJkZGZDbku872UPp-6" edge="1">
          <mxGeometry width="50" height="50" relative="1" as="geometry">
            <mxPoint x="755" y="-284" as="sourcePoint" />
            <mxPoint x="700" y="-370" as="targetPoint" />
            <Array as="points" />
          </mxGeometry>
        </mxCell>
        <mxCell id="oT0bbJkZGZDbku872UPp-404" value="" style="endArrow=none;html=1;rounded=0;exitX=0.588;exitY=0.014;exitDx=0;exitDy=0;exitPerimeter=0;entryX=0.5;entryY=1;entryDx=0;entryDy=0;" parent="1" source="oT0bbJkZGZDbku872UPp-399" edge="1" target="oT0bbJkZGZDbku872UPp-6">
          <mxGeometry width="50" height="50" relative="1" as="geometry">
            <mxPoint x="620" y="-250" as="sourcePoint" />
            <mxPoint x="680" y="-340" as="targetPoint" />
            <Array as="points" />
          </mxGeometry>
        </mxCell>
        <mxCell id="oT0bbJkZGZDbku872UPp-405" value="" style="endArrow=none;html=1;rounded=0;exitX=0.643;exitY=0;exitDx=0;exitDy=0;exitPerimeter=0;entryX=0.25;entryY=1;entryDx=0;entryDy=0;" parent="1" source="oT0bbJkZGZDbku872UPp-398" edge="1" target="oT0bbJkZGZDbku872UPp-6">
          <mxGeometry width="50" height="50" relative="1" as="geometry">
            <mxPoint x="580" y="-284" as="sourcePoint" />
            <mxPoint x="653" y="-370" as="targetPoint" />
            <Array as="points" />
          </mxGeometry>
        </mxCell>
        <mxCell id="oT0bbJkZGZDbku872UPp-411" value="&lt;font style=&quot;font-size: 18px;&quot;&gt;used in&lt;/font&gt;" style="rhombus;whiteSpace=wrap;html=1;" parent="1" vertex="1">
          <mxGeometry x="382.5" y="-422.5" width="137.5" height="72.5" as="geometry" />
        </mxCell>
        <mxCell id="oT0bbJkZGZDbku872UPp-454" value="" style="fontSize=12;html=1;endArrow=ERoneToMany;rounded=0;entryX=0.428;entryY=0;entryDx=0;entryDy=0;exitX=0.5;exitY=1;exitDx=0;exitDy=0;strokeColor=#D5E8D4;entryPerimeter=0;" parent="1" source="oT0bbJkZGZDbku872UPp-3" target="oT0bbJkZGZDbku872UPp-5" edge="1">
          <mxGeometry width="100" height="100" relative="1" as="geometry">
            <mxPoint x="200" y="-510" as="sourcePoint" />
            <mxPoint x="340" y="-530" as="targetPoint" />
          </mxGeometry>
        </mxCell>
        <mxCell id="oT0bbJkZGZDbku872UPp-457" value="" style="fontSize=12;html=1;endArrow=ERoneToMany;rounded=0;entryX=0.5;entryY=0;entryDx=0;entryDy=0;exitX=0.5;exitY=1;exitDx=0;exitDy=0;strokeColor=#D5E8D4;" parent="1" source="oT0bbJkZGZDbku872UPp-4" edge="1">
          <mxGeometry width="100" height="100" relative="1" as="geometry">
            <mxPoint x="669.47" y="-530" as="sourcePoint" />
            <mxPoint x="669.47" y="-410" as="targetPoint" />
          </mxGeometry>
        </mxCell>
        <mxCell id="oT0bbJkZGZDbku872UPp-410" value="&lt;font style=&quot;font-size: 18px;&quot;&gt;recieves&lt;/font&gt;" style="rhombus;whiteSpace=wrap;html=1;" parent="1" vertex="1">
          <mxGeometry x="605" y="-500" width="130" height="60" as="geometry" />
        </mxCell>
        <mxCell id="oT0bbJkZGZDbku872UPp-458" value="" style="fontSize=12;html=1;endArrow=ERoneToMany;rounded=0;entryX=0.5;entryY=0;entryDx=0;entryDy=0;exitX=0.5;exitY=1;exitDx=0;exitDy=0;strokeColor=#D5E8D4;" parent="1" source="oT0bbJkZGZDbku872UPp-2" target="oT0bbJkZGZDbku872UPp-4" edge="1">
          <mxGeometry width="100" height="100" relative="1" as="geometry">
            <mxPoint x="669.47" y="-695" as="sourcePoint" />
            <mxPoint x="669.47" y="-575" as="targetPoint" />
          </mxGeometry>
        </mxCell>
        <mxCell id="oT0bbJkZGZDbku872UPp-408" value="&lt;font style=&quot;font-size: 18px;&quot;&gt;Post&lt;/font&gt;" style="rhombus;whiteSpace=wrap;html=1;strokeColor=#D5E8D4;" parent="1" vertex="1">
          <mxGeometry x="591.25" y="-675" width="157.5" height="70" as="geometry" />
        </mxCell>
        <mxCell id="PvZFkcMZm64Rr3_niC1q-3" value="&lt;font style=&quot;font-size: 34px;&quot;&gt;&lt;b style=&quot;&quot;&gt;ER Diagram :&lt;/b&gt;&lt;/font&gt;&lt;div&gt;&lt;span style=&quot;font-size: 34px;&quot;&gt;&lt;b&gt;&lt;br&gt;&lt;/b&gt;&lt;/span&gt;&lt;div&gt;&lt;font style=&quot;font-size: 26px;&quot;&gt;Group members:&lt;/font&gt;&lt;/div&gt;&lt;div&gt;&lt;font style=&quot;font-size: 26px;&quot;&gt;&lt;u&gt;&lt;i&gt;M Afnan Khan 22pwcse2154&lt;/i&gt;&lt;/u&gt;&lt;/font&gt;&lt;/div&gt;&lt;div&gt;&lt;font style=&quot;font-size: 26px;&quot;&gt;&lt;i&gt;&lt;u&gt;M Hassan 22pwcse2105&lt;/u&gt;&lt;/i&gt;&lt;/font&gt;&lt;/div&gt;&lt;div&gt;&lt;font style=&quot;font-size: 26px;&quot;&gt;&lt;i&gt;&lt;u&gt;Mohsin Sajjad 22pwcse2149&lt;/u&gt;&lt;/i&gt;&lt;/font&gt;&lt;/div&gt;&lt;/div&gt;" style="rounded=0;whiteSpace=wrap;html=1;strokeColor=#1A1A1A;" parent="1" vertex="1">
          <mxGeometry x="-160" y="-99.99571428571426" width="460" height="234" as="geometry" />
        </mxCell>
        <mxCell id="oT0bbJkZGZDbku872UPp-380" value="&lt;font style=&quot;font-size: 18px; color: rgb(0, 0, 0);&quot;&gt;CompanyName&lt;/font&gt;" style="ellipse;whiteSpace=wrap;html=1;fillColor=#e6d0de;gradientColor=#d5739d;strokeColor=#996185;" parent="1" vertex="1">
          <mxGeometry x="510" y="-940" width="185" height="70" as="geometry" />
        </mxCell>
        <mxCell id="oT0bbJkZGZDbku872UPp-381" value="&lt;font style=&quot;font-size: 18px; color: rgb(0, 0, 0);&quot;&gt;VerifiedStatus&lt;/font&gt;" style="ellipse;whiteSpace=wrap;html=1;fillColor=#e6d0de;gradientColor=#d5739d;strokeColor=#996185;" parent="1" vertex="1">
          <mxGeometry x="830" y="-820" width="170" height="70" as="geometry" />
        </mxCell>
        <mxCell id="oT0bbJkZGZDbku872UPp-332" value="&lt;font style=&quot;font-size: 18px;&quot;&gt;&lt;u&gt;&lt;b&gt;UserID&lt;/b&gt;&lt;/u&gt;&lt;/font&gt;" style="ellipse;whiteSpace=wrap;html=1;fillColor=#6d8764;fontColor=#ffffff;strokeColor=#3A5431;" parent="1" vertex="1">
          <mxGeometry x="-40" y="-850" width="130" height="70" as="geometry" />
        </mxCell>
        <mxCell id="oT0bbJkZGZDbku872UPp-333" value="&lt;font style=&quot;font-size: 18px;&quot;&gt;Name&lt;/font&gt;" style="ellipse;whiteSpace=wrap;html=1;fillColor=#6d8764;fontColor=#ffffff;strokeColor=#3A5431;" parent="1" vertex="1">
          <mxGeometry x="50" y="-920" width="130" height="60" as="geometry" />
        </mxCell>
        <mxCell id="oT0bbJkZGZDbku872UPp-335" value="&lt;font style=&quot;font-size: 18px;&quot;&gt;Email&lt;/font&gt;" style="ellipse;whiteSpace=wrap;html=1;fillColor=#6d8764;fontColor=#ffffff;strokeColor=#3A5431;" parent="1" vertex="1">
          <mxGeometry x="200" y="-940" width="120" height="70" as="geometry" />
        </mxCell>
        <mxCell id="oT0bbJkZGZDbku872UPp-336" value="&lt;font style=&quot;font-size: 18px;&quot;&gt;&lt;u&gt;&lt;b&gt;JobSeekerID&lt;/b&gt;&lt;/u&gt;&lt;/font&gt;" style="ellipse;whiteSpace=wrap;html=1;fillColor=#008a00;fontColor=#ffffff;strokeColor=#005700;" parent="1" vertex="1">
          <mxGeometry x="-80" y="-720" width="150" height="80" as="geometry" />
        </mxCell>
        <mxCell id="oT0bbJkZGZDbku872UPp-337" value="&lt;font style=&quot;font-size: 18px;&quot;&gt;DateOfBirth&lt;/font&gt;" style="ellipse;whiteSpace=wrap;html=1;fillColor=#008a00;fontColor=#ffffff;strokeColor=#005700;" parent="1" vertex="1">
          <mxGeometry x="-150" y="-630" width="130" height="70" as="geometry" />
        </mxCell>
        <mxCell id="oT0bbJkZGZDbku872UPp-338" value="&lt;font style=&quot;font-size: 18px;&quot;&gt;Address&lt;/font&gt;" style="ellipse;whiteSpace=wrap;html=1;fillColor=#008a00;fontColor=#ffffff;strokeColor=#005700;" parent="1" vertex="1">
          <mxGeometry x="-160" y="-540" width="120" height="70" as="geometry" />
        </mxCell>
        <mxCell id="oT0bbJkZGZDbku872UPp-339" value="&lt;font style=&quot;font-size: 18px;&quot;&gt;ProfileSummary&lt;/font&gt;" style="ellipse;whiteSpace=wrap;html=1;fillColor=#008a00;fontColor=#ffffff;strokeColor=#005700;" parent="1" vertex="1">
          <mxGeometry x="-80" y="-470" width="160" height="70" as="geometry" />
        </mxCell>
        <mxCell id="oT0bbJkZGZDbku872UPp-340" value="&lt;font style=&quot;font-size: 18px;&quot;&gt;&lt;u&gt;&lt;b&gt;ResumeID&lt;/b&gt;&lt;/u&gt;&lt;/font&gt;" style="ellipse;whiteSpace=wrap;html=1;direction=west;flipV=1;flipH=1;fillColor=#f5f5f5;strokeColor=#666666;fontColor=#333333;" parent="1" vertex="1">
          <mxGeometry x="-60" y="-320" width="140" height="80" as="geometry" />
        </mxCell>
        <mxCell id="oT0bbJkZGZDbku872UPp-341" value="&lt;font style=&quot;font-size: 18px;&quot;&gt;FilePath&lt;/font&gt;" style="ellipse;whiteSpace=wrap;html=1;direction=west;flipV=1;flipH=1;fillColor=#f5f5f5;fontColor=#333333;strokeColor=#666666;" parent="1" vertex="1">
          <mxGeometry x="40" y="-250" width="140" height="70" as="geometry" />
        </mxCell>
        <mxCell id="oT0bbJkZGZDbku872UPp-342" value="&lt;font style=&quot;font-size: 18px;&quot;&gt;UploadDate&lt;/font&gt;" style="ellipse;whiteSpace=wrap;html=1;direction=west;flipV=1;flipH=1;fillColor=#f5f5f5;fontColor=#333333;strokeColor=#666666;" parent="1" vertex="1">
          <mxGeometry x="190" y="-240" width="140" height="70" as="geometry" />
        </mxCell>
        <mxCell id="oT0bbJkZGZDbku872UPp-343" value="&lt;font style=&quot;font-size: 18px;&quot;&gt;LastUpdated&lt;/font&gt;" style="ellipse;whiteSpace=wrap;html=1;direction=west;flipV=1;flipH=1;fillColor=#f5f5f5;fontColor=#333333;strokeColor=#666666;" parent="1" vertex="1">
          <mxGeometry x="285" y="-315" width="140" height="70" as="geometry" />
        </mxCell>
        <mxCell id="oT0bbJkZGZDbku872UPp-382" value="&lt;font style=&quot;font-size: 18px; color: rgb(0, 0, 0);&quot;&gt;Company&lt;span style=&quot;line-height: 107%;&quot;&gt;Description&lt;/span&gt;&lt;/font&gt;" style="ellipse;whiteSpace=wrap;html=1;fillColor=#e6d0de;gradientColor=#d5739d;strokeColor=#996185;" parent="1" vertex="1">
          <mxGeometry x="720" y="-920" width="195" height="80" as="geometry" />
        </mxCell>
        <mxCell id="oT0bbJkZGZDbku872UPp-401" value="&lt;font style=&quot;font-size: 18px;&quot;&gt;Status&lt;/font&gt;" style="ellipse;whiteSpace=wrap;html=1;direction=west;flipV=1;flipH=1;fillColor=#fa6800;fontColor=#000000;strokeColor=#C73500;" parent="1" vertex="1">
          <mxGeometry x="830" y="-310" width="125" height="60" as="geometry" />
        </mxCell>
        <mxCell id="oT0bbJkZGZDbku872UPp-399" value="&lt;font style=&quot;font-size: 18px;&quot;&gt;ApplicatioonDate&lt;/font&gt;" style="ellipse;whiteSpace=wrap;html=1;direction=west;flipV=1;flipH=1;fillColor=#fa6800;fontColor=#000000;strokeColor=#C73500;" parent="1" vertex="1">
          <mxGeometry x="655" y="-250" width="195" height="70" as="geometry" />
        </mxCell>
        <mxCell id="oT0bbJkZGZDbku872UPp-398" value="&lt;font style=&quot;font-size: 18px;&quot;&gt;&lt;u&gt;&lt;b&gt;ApplicationID&lt;/b&gt;&lt;/u&gt;&lt;/font&gt;" style="ellipse;whiteSpace=wrap;html=1;direction=west;flipV=1;flipH=1;fillColor=#fa6800;fontColor=#000000;strokeColor=#C73500;" parent="1" vertex="1">
          <mxGeometry x="510" y="-300" width="140" height="70" as="geometry" />
        </mxCell>
        <mxCell id="oT0bbJkZGZDbku872UPp-3" value="&lt;font style=&quot;font-size: 18px;&quot;&gt;JobSeeker&lt;/font&gt;" style="rounded=0;whiteSpace=wrap;html=1;fillColor=#5BE279;fontColor=#1A1A1A;strokeColor=#006EAF;" parent="1" vertex="1">
          <mxGeometry x="160" y="-575" width="130" height="50" as="geometry" />
        </mxCell>
        <mxCell id="oT0bbJkZGZDbku872UPp-409" value="&lt;font style=&quot;font-size: 18px;&quot;&gt;has&lt;/font&gt;" style="rhombus;whiteSpace=wrap;html=1;rotation=0;" parent="1" vertex="1">
          <mxGeometry x="165" y="-500" width="120" height="70" as="geometry" />
        </mxCell>
        <mxCell id="oT0bbJkZGZDbku872UPp-392" value="&lt;font style=&quot;font-size: 18px;&quot;&gt;&lt;u&gt;&lt;b&gt;JobID&lt;/b&gt;&lt;/u&gt;&lt;/font&gt;" style="ellipse;whiteSpace=wrap;html=1;fillColor=#647687;fontColor=#ffffff;strokeColor=#314354;" parent="1" vertex="1">
          <mxGeometry x="840" y="-670" width="140" height="55" as="geometry" />
        </mxCell>
        <mxCell id="oT0bbJkZGZDbku872UPp-390" value="&lt;font style=&quot;font-size: 18px;&quot;&gt;Title&lt;/font&gt;" style="ellipse;whiteSpace=wrap;html=1;fillColor=#647687;fontColor=#ffffff;strokeColor=#314354;" parent="1" vertex="1">
          <mxGeometry x="980" y="-615" width="120" height="70" as="geometry" />
        </mxCell>
        <mxCell id="oT0bbJkZGZDbku872UPp-389" value="&lt;font style=&quot;font-size: 18px;&quot;&gt;Location&lt;/font&gt;" style="ellipse;whiteSpace=wrap;html=1;fillColor=#647687;fontColor=#ffffff;strokeColor=#314354;" parent="1" vertex="1">
          <mxGeometry x="970" y="-530" width="140" height="70" as="geometry" />
        </mxCell>
        <mxCell id="oT0bbJkZGZDbku872UPp-388" value="&lt;font style=&quot;font-size: 18px;&quot;&gt;SalaryRange&lt;/font&gt;" style="ellipse;whiteSpace=wrap;html=1;fillColor=#647687;fontColor=#ffffff;strokeColor=#314354;" parent="1" vertex="1">
          <mxGeometry x="820" y="-470" width="160" height="80" as="geometry" />
        </mxCell>
        <mxCell id="66_LnX08vuZ15siKtQ-q-2" value="" style="edgeStyle=entityRelationEdgeStyle;fontSize=12;html=1;endArrow=ERzeroToOne;startArrow=ERmandOne;rounded=0;exitX=1;exitY=0.5;exitDx=0;exitDy=0;entryX=0;entryY=0.5;entryDx=0;entryDy=0;" edge="1" parent="1" source="oT0bbJkZGZDbku872UPp-1" target="oT0bbJkZGZDbku872UPp-2">
          <mxGeometry width="100" height="100" relative="1" as="geometry">
            <mxPoint x="450" y="-410" as="sourcePoint" />
            <mxPoint x="550" y="-510" as="targetPoint" />
          </mxGeometry>
        </mxCell>
        <mxCell id="oT0bbJkZGZDbku872UPp-406" value="&lt;font style=&quot;font-size: 18px;&quot;&gt;is a&lt;/font&gt;" style="rhombus;whiteSpace=wrap;html=1;" parent="1" vertex="1">
          <mxGeometry x="390" y="-765" width="100" height="70" as="geometry" />
        </mxCell>
        <mxCell id="66_LnX08vuZ15siKtQ-q-3" value="" style="fontSize=12;html=1;endArrow=ERzeroToOne;startArrow=ERmandOne;rounded=0;exitX=0.75;exitY=1;exitDx=0;exitDy=0;entryX=0.5;entryY=0;entryDx=0;entryDy=0;" edge="1" parent="1">
          <mxGeometry width="100" height="100" relative="1" as="geometry">
            <mxPoint x="230" y="-710" as="sourcePoint" />
            <mxPoint x="220" y="-575" as="targetPoint" />
          </mxGeometry>
        </mxCell>
        <mxCell id="oT0bbJkZGZDbku872UPp-407" value="&lt;font style=&quot;font-size: 18px;&quot;&gt;is a&lt;/font&gt;" style="rhombus;whiteSpace=wrap;html=1;rotation=0;" parent="1" vertex="1">
          <mxGeometry x="172.5" y="-672.5" width="105" height="60" as="geometry" />
        </mxCell>
      </root>
    </mxGraphModel>
  </diagram>
</mxfile>
